# xmcd
#
# Track frame offsets:
#	150
#	14850
#	28125
#	41325
#	57825
#	70875
#	85725
#	95550
#	114675
#	132372
#	146550
#	157575
#	170250
#	186600
#	201150
#	213825
#	232195
#	244270
#	259495
#	276822
#	288822
#	301500
#
# Disc length: 4235 seconds
#
# Revision: 3
# Processed by: cddbd v1.5.2PL0 Copyright (c) Steve Scherf et al.
# Submitted via: audiograbber 1.83.01
#
DISCID=42108916
DTITLE=Anne Murray - Very Best Of Anne Murray
DYEAR=1900
DGENRE=Folk
TTITLE0=Could I Have This Dance
TTITLE1=Just Another Woman In Love
TTITLE2=Danny's Song
TTITLE3=We Don't Have To Hold Out
TTITLE4=He Thinks I Still Care
TTITLE5=Killing Me Softly With His Song
TTITLE6=Snowbird
TTITLE7=Now and Forever
TTITLE8=Broken Hearted Me
TTITLE9=A Little Good News
TTITLE10=Daydream Believer
TTITLE11=A Love Song
TTITLE12=You Needed Me
TTITLE13=A Million More
TTITLE14=I Just Fall In Love Again
TTITLE15=Song For The Mira
TTITLE16=Walk Right Back
TTITLE17=Shadows In The Moonlight
TTITLE18=Nobody Loves Me Like You Do
TTITLE19=Blessed Are The Believers
TTITLE20=Tennessee Waltz
TTITLE21=Time Don't Run Out On Me
EXTD=
EXTT0=
EXTT1=
EXTT2=
EXTT3=
EXTT4=
EXTT5=
EXTT6=
EXTT7=
EXTT8=
EXTT9=
EXTT10=
EXTT11=
EXTT12=
EXTT13=
EXTT14=
EXTT15=
EXTT16=
EXTT17=
EXTT18=
EXTT19=
EXTT20=
EXTT21=
PLAYORDER=
